<svg width="1000" height="1000" viewBox="0 0 1000 1000" fill="none" xmlns="http://www.w3.org/2000/svg">
<path d="M866.8 370.7C885.9 425.2 914.1 463.3 895 524.3C879.1 574.5 848.3 577 817.8 610.4C790.8 640.1 788.2 690.6 756 715.6C713.1 748.8 673.6 720.7 629.8 712.8C582.4 704.2 558.1 719.6 514.2 744.6C432.3 791.2 322.8 838.3 232.1 780.6C179.2 747 167.1 676.6 147.1 620.4C129.7 571.5 94.5 513.5 90.1 461.2C80.1 342.1 211.1 264.6 308.4 244.1C354.2 234.4 407.7 239.7 450 221.9C495.1 202.9 518 155.6 554.8 125.9C649.1 49.7 768.5 92.5 818.3 205.9C841.7 259.4 847.8 316.5 866.8 370.7V370.7Z" fill="#5390D8"/>
<g opacity="0.7">
<path d="M866.8 370.7C885.9 425.2 914.1 463.3 895 524.3C879.1 574.5 848.3 577 817.8 610.4C790.8 640.1 788.2 690.6 756 715.6C713.1 748.8 673.6 720.7 629.8 712.8C582.4 704.2 558.1 719.6 514.2 744.6C432.3 791.2 322.8 838.3 232.1 780.6C179.2 747 167.1 676.6 147.1 620.4C129.7 571.5 94.5 513.5 90.1 461.2C80.1 342.1 211.1 264.6 308.4 244.1C354.2 234.4 407.7 239.7 450 221.9C495.1 202.9 518 155.6 554.8 125.9C649.1 49.7 768.5 92.5 818.3 205.9C841.7 259.4 847.8 316.5 866.8 370.7V370.7Z" fill="white"/>
</g>
<path d="M439.6 836.9C610.4 836.9 748.8 845.5 748.8 856.1C748.8 866.7 610.4 875.4 439.6 875.4C268.9 875.4 130.5 866.7 130.5 856.1C130.5 845.5 268.9 836.9 439.6 836.9V836.9Z" fill="#5390D8"/>
<path opacity="0.8" d="M439.6 836.9C610.4 836.9 748.8 845.5 748.8 856.1C748.8 866.7 610.4 875.4 439.6 875.4C268.9 875.4 130.5 866.7 130.5 856.1C130.5 845.5 268.9 836.9 439.6 836.9V836.9Z" fill="white"/>
<path d="M671.9 857.7H361.1C339.6 857.7 322.2 840.3 322.2 818.9V162.6C322.2 141.1 339.6 123.7 361.1 123.7H671.9C693.4 123.7 710.8 141.1 710.8 162.6V818.9C710.8 840.3 693.4 857.7 671.9 857.7Z" fill="#263238"/>
<path d="M693.5 777.1H339.5V204.3H693.5V777.1Z" fill="white" stroke="#263238" stroke-width="2.7"/>
<path d="M516.5 458.7C474.1 458.7 439.8 424.4 439.8 382C439.8 339.6 474.1 305.3 516.5 305.3C558.9 305.3 593.3 339.6 593.3 382C593.3 424.4 558.9 458.7 516.5 458.7Z" fill="#5390D8"/>
<path d="M617.3 741.1H415.8C413.9 741.1 412.3 739.6 412.3 737.7C412.3 735.7 413.9 734.2 415.8 734.2H617.3C619.2 734.2 620.7 735.7 620.7 737.7C620.7 739.6 619.2 741.1 617.3 741.1Z" fill="#5390D8"/>
<path d="M623.8 543.2H409.2C404.8 543.2 401.2 539.6 401.2 535.2V509.9C401.2 505.5 404.8 501.9 409.2 501.9H623.8C628.3 501.9 631.8 505.5 631.8 509.9V535.2C631.8 539.6 628.3 543.2 623.8 543.2Z" fill="#5390D8"/>
<path d="M623.8 620.5H409.2C404.8 620.5 401.2 617 401.2 612.5V587.2C401.2 582.8 404.8 579.2 409.2 579.2H623.8C628.3 579.2 631.8 582.8 631.8 587.2V612.5C631.8 617 628.3 620.5 623.8 620.5Z" fill="#5390D8"/>
<path d="M563.4 435.3V442.7C550.4 452.8 534.2 458.7 516.5 458.7C498.8 458.7 482.6 452.8 469.6 442.7V435.3C469.6 429.1 472.9 423.4 478.3 420.3L500.9 407.3V396.5C497.6 392.7 495.1 387.7 493.7 382.1L491.1 382.8C491.1 382.8 486.2 374.2 487.4 368.1C488 365.3 489 365.7 490 366.9C489.8 363.4 489.1 359.5 487.4 357C483.7 351.5 485 337.3 489.3 336.1C493.6 334.9 499.7 334.9 499.7 334.9C499.7 334.9 504 323.2 518.2 323.2C532.3 323.2 535.4 330.6 539.7 337.3C544 344.1 549.5 341 548.3 348.4C547 355.8 545.2 357.6 545.2 357.6C545.2 357.6 549.6 361.6 546.4 368.5C546.1 374.7 544.3 383.4 541.5 383.4C540.6 383.4 539.8 383.2 539.1 383C537.6 388.3 535.2 392.9 532.1 396.5V407.3L554.7 420.3C560.1 423.4 563.4 429.1 563.4 435.3V435.3Z" fill="#263238"/>
<path d="M430.4 610.3C429.867 610.3 429.4 610.1 429 609.7C428.6 609.3 428.4 608.833 428.4 608.3C428.4 607.9 428.5 607.567 428.7 607.3L432.3 601.5L425.3 601.7C424.7 601.7 424.2 601.533 423.8 601.2C423.467 600.8 423.3 600.333 423.3 599.8C423.3 599.333 423.467 598.9 423.8 598.5C424.2 598.167 424.7 598 425.3 598L432.2 598.2L428.6 592.5C428.4 592.167 428.3 591.8 428.3 591.4C428.3 590.867 428.533 590.4 429 590C429.4 589.667 429.833 589.5 430.3 589.5C431.033 589.5 431.6 589.833 432 590.5L435.4 596.7L438.8 590.5C439.2 589.767 439.767 589.4 440.5 589.4C441.033 589.4 441.467 589.6 441.8 590C442.2 590.4 442.4 590.867 442.4 591.4C442.4 591.733 442.3 592.067 442.1 592.4L438.5 598.2L445.5 598C446.167 598 446.667 598.167 447 598.5C447.333 598.9 447.5 599.333 447.5 599.8C447.5 600.333 447.333 600.8 447 601.2C446.667 601.533 446.167 601.7 445.5 601.7L438.5 601.5L442 607.2C442.2 607.533 442.3 607.9 442.3 608.3C442.3 608.833 442.1 609.3 441.7 609.7C441.3 610.1 440.833 610.3 440.3 610.3C439.633 610.3 439.1 609.933 438.7 609.2L435.4 603.2L432.1 609.2C431.633 609.933 431.067 610.3 430.4 610.3V610.3Z" fill="#263238"/>
<path d="M462.8 610.3C462.333 610.3 461.9 610.1 461.5 609.7C461.033 609.3 460.8 608.833 460.8 608.3C460.8 607.9 460.9 607.567 461.1 607.3L464.7 601.5L457.7 601.7C457.1 601.7 456.633 601.533 456.3 601.2C455.967 600.8 455.8 600.333 455.8 599.8C455.8 599.333 455.967 598.9 456.3 598.5C456.633 598.167 457.1 598 457.7 598L464.6 598.2L461.1 592.5C460.9 592.167 460.8 591.8 460.8 591.4C460.8 590.867 461 590.4 461.4 590C461.8 589.667 462.267 589.5 462.8 589.5C463.467 589.5 464 589.833 464.4 590.5L467.8 596.7L471.2 590.5C471.667 589.767 472.233 589.4 472.9 589.4C473.433 589.4 473.9 589.6 474.3 590C474.7 590.4 474.9 590.867 474.9 591.4C474.9 591.733 474.8 592.067 474.6 592.4L471 598.2L478 598C478.6 598 479.067 598.167 479.4 598.5C479.733 598.9 479.9 599.333 479.9 599.8C479.9 600.333 479.733 600.8 479.4 601.2C479.067 601.533 478.6 601.7 478 601.7L470.9 601.5L474.4 607.2C474.6 607.533 474.7 607.9 474.7 608.3C474.7 608.833 474.5 609.3 474.1 609.7C473.7 610.1 473.267 610.3 472.8 610.3C472.067 610.3 471.533 609.933 471.2 609.2L467.8 603.2L464.5 609.2C464.1 609.933 463.533 610.3 462.8 610.3V610.3Z" fill="#263238"/>
<path d="M495.3 610.3C494.767 610.3 494.3 610.1 493.9 609.7C493.5 609.3 493.3 608.833 493.3 608.3C493.3 607.9 493.4 607.567 493.6 607.3L497.2 601.5L490.2 601.7C489.533 601.7 489.033 601.533 488.7 601.2C488.367 600.8 488.2 600.333 488.2 599.8C488.2 599.333 488.367 598.9 488.7 598.5C489.033 598.167 489.533 598 490.2 598L497.1 598.2L493.5 592.5C493.3 592.167 493.2 591.8 493.2 591.4C493.2 590.867 493.4 590.4 493.8 590C494.267 589.667 494.733 589.5 495.2 589.5C495.867 589.5 496.4 589.833 496.8 590.5L500.3 596.7L503.6 590.5C504.067 589.767 504.667 589.4 505.4 589.4C505.933 589.4 506.367 589.6 506.7 590C507.1 590.4 507.3 590.867 507.3 591.4C507.3 591.733 507.2 592.067 507 592.4L503.4 598.2L510.4 598C511.067 598 511.567 598.167 511.9 598.5C512.233 598.9 512.4 599.333 512.4 599.8C512.4 600.333 512.233 600.8 511.9 601.2C511.567 601.533 511.067 601.7 510.4 601.7L503.4 601.5L506.9 607.2C507.1 607.533 507.2 607.9 507.2 608.3C507.2 608.833 507 609.3 506.6 609.7C506.133 610.1 505.667 610.3 505.2 610.3C504.533 610.3 504 609.933 503.6 609.2L500.3 603.2L496.9 609.2C496.5 609.933 495.967 610.3 495.3 610.3V610.3Z" fill="#263238"/>
<path d="M527.7 610.3C527.233 610.3 526.767 610.1 526.3 609.7C525.9 609.3 525.7 608.833 525.7 608.3C525.7 607.9 525.8 607.567 526 607.3L529.6 601.5L522.6 601.7C522 601.7 521.533 601.533 521.2 601.2C520.8 600.8 520.6 600.333 520.6 599.8C520.6 599.333 520.8 598.9 521.2 598.5C521.533 598.167 522 598 522.6 598L529.5 598.2L526 592.5C525.8 592.167 525.7 591.8 525.7 591.4C525.7 590.867 525.9 590.4 526.3 590C526.7 589.667 527.167 589.5 527.7 589.5C528.367 589.5 528.9 589.833 529.3 590.5L532.7 596.7L536.1 590.5C536.567 589.767 537.133 589.4 537.8 589.4C538.333 589.4 538.8 589.6 539.2 590C539.533 590.4 539.7 590.867 539.7 591.4C539.7 591.733 539.633 592.067 539.5 592.4L535.8 598.2L542.9 598C543.5 598 543.967 598.167 544.3 598.5C544.633 598.9 544.8 599.333 544.8 599.8C544.8 600.333 544.633 600.8 544.3 601.2C543.967 601.533 543.5 601.7 542.9 601.7L535.8 601.5L539.3 607.2C539.5 607.533 539.6 607.9 539.6 608.3C539.6 608.833 539.4 609.3 539 609.7C538.6 610.1 538.133 610.3 537.6 610.3C536.933 610.3 536.433 609.933 536.1 609.2L532.7 603.2L529.4 609.2C529 609.933 528.433 610.3 527.7 610.3V610.3Z" fill="#263238"/>
<path d="M560.2 610.3C559.667 610.3 559.2 610.1 558.8 609.7C558.4 609.3 558.2 608.833 558.2 608.3C558.2 607.9 558.3 607.567 558.5 607.3L562.1 601.5L555.1 601.7C554.433 601.7 553.933 601.533 553.6 601.2C553.267 600.8 553.1 600.333 553.1 599.8C553.1 599.333 553.267 598.9 553.6 598.5C553.933 598.167 554.433 598 555.1 598L562 598.2L558.4 592.5C558.2 592.167 558.1 591.8 558.1 591.4C558.1 590.867 558.3 590.4 558.7 590C559.1 589.667 559.567 589.5 560.1 589.5C560.767 589.5 561.3 589.833 561.7 590.5L565.1 596.7L568.5 590.5C568.967 589.767 569.567 589.4 570.3 589.4C570.767 589.4 571.2 589.6 571.6 590C572 590.4 572.2 590.867 572.2 591.4C572.2 591.733 572.1 592.067 571.9 592.4L568.3 598.2L575.3 598C575.967 598 576.467 598.167 576.8 598.5C577.133 598.9 577.3 599.333 577.3 599.8C577.3 600.333 577.133 600.8 576.8 601.2C576.467 601.533 575.967 601.7 575.3 601.7L568.3 601.5L571.8 607.2C572 607.533 572.1 607.9 572.1 608.3C572.1 608.833 571.867 609.3 571.4 609.7C571 610.1 570.567 610.3 570.1 610.3C569.433 610.3 568.9 609.933 568.5 609.2L565.1 603.2L561.8 609.2C561.4 609.933 560.867 610.3 560.2 610.3V610.3Z" fill="#263238"/>
<path d="M592.6 610.3C592.067 610.3 591.6 610.1 591.2 609.7C590.8 609.3 590.6 608.833 590.6 608.3C590.6 607.9 590.7 607.567 590.9 607.3L594.5 601.5L587.5 601.7C586.9 601.7 586.433 601.533 586.1 601.2C585.7 600.8 585.5 600.333 585.5 599.8C585.5 599.333 585.7 598.9 586.1 598.5C586.433 598.167 586.9 598 587.5 598L594.4 598.2L590.9 592.5C590.7 592.167 590.6 591.8 590.6 591.4C590.6 590.867 590.8 590.4 591.2 590C591.6 589.667 592.067 589.5 592.6 589.5C593.267 589.5 593.8 589.833 594.2 590.5L597.6 596.7L601 590.5C601.467 589.767 602.033 589.4 602.7 589.4C603.233 589.4 603.7 589.6 604.1 590C604.433 590.4 604.6 590.867 604.6 591.4C604.6 591.733 604.533 592.067 604.4 592.4L600.7 598.2L607.8 598C608.4 598 608.867 598.167 609.2 598.5C609.533 598.9 609.7 599.333 609.7 599.8C609.7 600.333 609.533 600.8 609.2 601.2C608.867 601.533 608.4 601.7 607.8 601.7L600.7 601.5L604.2 607.2C604.4 607.533 604.5 607.9 604.5 608.3C604.5 608.833 604.3 609.3 603.9 609.7C603.5 610.1 603.033 610.3 602.5 610.3C601.833 610.3 601.3 609.933 600.9 609.2L597.6 603.2L594.3 609.2C593.833 609.933 593.267 610.3 592.6 610.3V610.3Z" fill="#263238"/>
<g style="mix-blend-mode:multiply">
<path d="M339.5 205.1H693.5V227.3H339.5V205.1Z" fill="#5390D8"/>
</g>
<path d="M555 164.2H478C475.1 164.2 472.8 161.9 472.8 159C472.8 156.1 475.1 153.7 478 153.7H555C557.9 153.7 560.2 156.1 560.2 159C560.2 161.9 557.9 164.2 555 164.2Z" fill="#5390D8" stroke="#263238" stroke-width="2.7" stroke-linecap="round" stroke-linejoin="round"/>
<path d="M516.5 830.5C504.9 830.5 495.5 821.1 495.5 809.5C495.5 797.9 504.9 788.5 516.5 788.5C528.1 788.5 537.5 797.9 537.5 809.5C537.5 821.1 528.1 830.5 516.5 830.5Z" fill="#5390D8"/>
<path d="M527.2 820.1H505.9V798.8H527.2V820.1Z" fill="#5390D8" stroke="#263238" stroke-width="2.7" stroke-linecap="round" stroke-linejoin="round"/>
<path fill-rule="evenodd" clip-rule="evenodd" d="M770 568C770 568 742.1 497.2 766.9 488.8C792.7 480 791.6 526.7 790.6 549.6C788.5 598.3 783.1 607.3 779.1 595.4L770 568ZM744.1 600.3C744.1 600.3 694.7 542.4 715.4 526.4C737 509.7 751.1 554.2 757.6 576.2C771.4 622.9 769.3 633.3 761.6 623.3L744.1 600.3ZM730.1 648.9C730.1 648.9 684 611.7 697.5 596.5C711.6 580.6 728.8 612.6 737 628.4C754.3 662.2 754.2 670.4 746.9 663.9L730.1 648.9ZM714.1 697.2C714.1 697.2 668 660 681.5 644.8C695.6 628.9 712.9 660.9 721 676.7C738.3 710.5 738.2 718.7 730.9 712.2L714.1 697.2ZM804 603.5C804 603.5 873.5 572.4 883.1 596.9C893 622.3 846.3 623.3 823.4 623.3C774.7 623.4 765.4 618.5 777.1 613.9L804 603.5ZM792.2 641.6C792.2 641.6 866.5 624.9 871 650.8C875.7 677.6 829.7 669.3 807.3 664.8C759.4 655.3 751.3 648.6 763.7 646.4L792.2 641.6ZM773 682.7C773 682.7 836.2 670.4 839.4 692.3C842.7 715.1 804 707.1 785.2 702.7C744.9 693.5 738.2 687.7 748.7 686.1L773 682.7ZM761.2 716.9C761.2 716.9 822.8 697.9 828.3 719.4C834.1 741.8 794.7 737.8 775.5 735.5C734.5 730.7 727.2 725.5 737.5 722.9L761.2 716.9ZM811.9 543.2C811.9 543.2 844.5 459.4 874.7 476.8C906.2 494.8 866.5 531.1 846.6 548.5C804.2 585.4 791.7 587.5 797.8 574L811.9 543.2ZM753.7 762.2C753.7 762.2 790.9 738.1 799.9 749.5C809.4 761.3 781.6 767.3 768 770C738.9 775.8 732.7 774.4 739 770.7L753.7 762.2Z" fill="#5390D8"/>
<path opacity="0.3" fill-rule="evenodd" clip-rule="evenodd" d="M770 568C770 568 742.1 497.2 766.9 488.8C792.7 480 791.6 526.7 790.6 549.6C788.5 598.3 783.1 607.3 779.1 595.4L770 568ZM744.1 600.3C744.1 600.3 694.7 542.4 715.4 526.4C737 509.7 751.1 554.2 757.6 576.2C771.4 622.9 769.3 633.3 761.6 623.3L744.1 600.3ZM730.1 648.9C730.1 648.9 684 611.7 697.5 596.5C711.6 580.6 728.8 612.6 737 628.4C754.3 662.2 754.2 670.4 746.9 663.9L730.1 648.9ZM714.1 697.2C714.1 697.2 668 660 681.5 644.8C695.6 628.9 712.9 660.9 721 676.7C738.3 710.5 738.2 718.7 730.9 712.2L714.1 697.2ZM804 603.5C804 603.5 873.5 572.4 883.1 596.9C893 622.3 846.3 623.3 823.4 623.3C774.7 623.4 765.4 618.5 777.1 613.9L804 603.5ZM792.2 641.6C792.2 641.6 866.5 624.9 871 650.8C875.7 677.6 829.7 669.3 807.3 664.8C759.4 655.3 751.3 648.6 763.7 646.4L792.2 641.6ZM773 682.7C773 682.7 836.2 670.4 839.4 692.3C842.7 715.1 804 707.1 785.2 702.7C744.9 693.5 738.2 687.7 748.7 686.1L773 682.7ZM761.2 716.9C761.2 716.9 822.8 697.9 828.3 719.4C834.1 741.8 794.7 737.8 775.5 735.5C734.5 730.7 727.2 725.5 737.5 722.9L761.2 716.9ZM811.9 543.2C811.9 543.2 844.5 459.4 874.7 476.8C906.2 494.8 866.5 531.1 846.6 548.5C804.2 585.4 791.7 587.5 797.8 574L811.9 543.2ZM753.7 762.2C753.7 762.2 790.9 738.1 799.9 749.5C809.4 761.3 781.6 767.3 768 770C738.9 775.8 732.7 774.4 739 770.7L753.7 762.2Z" fill="white"/>
<path fill-rule="evenodd" clip-rule="evenodd" d="M782.3 601L777.4 520.1ZM766.9 627.7L736.2 558.1ZM846.2 607.4L772.6 618ZM751 665.1L711.1 613.9ZM757.9 649.5L812.8 652.2ZM745 688.7L787 692.8ZM734.9 713.6L714.1 682.2ZM732.5 724.7L781.9 725.1Z" fill="#5390D8"/>
<path opacity="0.2" fill-rule="evenodd" clip-rule="evenodd" d="M782.3 601L777.4 520.1ZM766.9 627.7L736.2 558.1ZM846.2 607.4L772.6 618ZM751 665.1L711.1 613.9ZM757.9 649.5L812.8 652.2ZM745 688.7L787 692.8ZM734.9 713.6L714.1 682.2ZM732.5 724.7L781.9 725.1Z" fill="black"/>
<path d="M755.1 793.8H750.2L740 857.7H713.7L703.4 793.8H698.5V782.1H755.1V793.8Z" fill="#5390D8"/>
<path opacity="0.3" d="M755.1 793.8H750.2L740 857.7H713.7L703.4 793.8H698.5V782.1H755.1V793.8Z" fill="white"/>
<path d="M245.9 452.6L177 416.6L169.5 412.9L138.9 390.7L136 385.7L160.3 390.3L173.6 390.7L179.5 406.2L245.4 427.7L245.9 452.6Z" fill="white" stroke="#263238" stroke-width="2"/>
<path d="M156.9 394L154.8 391.5L167.4 386.9L173.6 390.7L156.9 394Z" fill="white" stroke="#263238" stroke-width="2" stroke-linejoin="round"/>
<path opacity="0.5" d="M245.9 452.6L177 416.6L169.5 412.9L138.9 390.7L136 385.7L160.3 390.3L173.6 390.7L179.5 406.2L245.4 427.7L245.9 452.6Z" fill="#5390D8" stroke="#263238" stroke-width="2"/>
<path d="M245.9 452.6L177 416.6L169.5 412.9L138.9 390.7L136 385.7L160.3 390.3L173.6 390.7L179.5 406.2L245.4 427.7L245.9 452.6Z" fill="white" stroke="#263238" stroke-width="2"/>
<path opacity="0.5" d="M156.9 394L154.8 391.5L167.4 386.9L173.6 390.7L156.9 394Z" fill="#5390D8" stroke="#263238" stroke-width="2" stroke-linejoin="round"/>
<path d="M156.9 394L154.8 391.5L167.4 386.9L173.6 390.7L156.9 394Z" fill="white" stroke="#263238" stroke-width="2" stroke-linejoin="round"/>
<g style="mix-blend-mode:multiply" opacity="0.5">
<path d="M245.8 317L257.2 340.7L251.2 349.4L239.7 328.9L245.8 317Z" fill="#5390D8"/>
</g>
<path d="M259.3 288.1C259.3 288.1 258.3 297.1 260.9 302.9C263.4 308.7 277.5 328.3 277.5 328.3L251.2 349.4C251.2 349.4 240.3 327.3 238.2 323.8C236.1 320.3 233.6 304.9 240.4 293.9C247.2 283 256.9 280.1 259.3 288.1Z" fill="white" stroke="#263238" stroke-width="2"/>
<g style="mix-blend-mode:multiply" opacity="0.5">
<path d="M202.2 256.6L214.3 251.6L224.6 260.1L219.7 284.3C219.7 284.3 213.4 284.7 210.2 278.4C207.1 272.2 207.8 266.4 208.9 263.7C210 260.9 204.9 267.7 204.9 267.7C204.9 267.7 201.7 280.7 202.6 283.8C203.5 287 217 291.9 217.9 297.3C218.8 302.6 217 307.6 221.4 311.2C225.9 314.7 234 325.5 239.4 326.8C244.8 328.2 247.4 317.9 247.4 317.9C247.4 317.9 247.6 318.5 247.9 319.4C247.6 321.4 246.9 323.4 245.6 325.4C240.9 332.6 231.9 342 226.2 340.2C222.9 339.2 212.5 330.3 206.7 317.5C203.6 318.3 197.6 319.6 197.7 317.7C197.8 315.6 199.6 306.7 200.4 303.3C198 299.9 196.2 295.1 193.4 287.9C192.5 285.4 191.5 280.8 191.9 278.3C190.3 270.1 193.3 267.2 202.2 256.6V256.6Z" fill="#5390D8"/>
</g>
<path d="M261.5 294.2C257.5 296.4 246.8 303.5 246.8 306.8C246.8 310 250.4 318.2 245.6 325.4C240.9 332.6 231.9 342 226.2 340.2C222.9 339.2 212.5 330.3 206.7 317.5C203.6 318.3 197.6 319.6 197.7 317.7C197.8 315.6 199.6 306.7 200.4 303.3C198 299.9 196.2 295.1 193.4 287.9C192.5 285.4 191.5 280.8 191.9 278.3C190.3 270.1 193.3 267.2 202.2 256.6C204.1 254.3 211.2 249.4 213.8 247.9C218.9 245 224.4 242.6 236.2 242.1C254.4 241.3 265.9 261.7 267.5 271.6C269.1 281.6 265.4 291.9 261.5 294.2V294.2Z" fill="white" stroke="#263238" stroke-width="2"/>
<path d="M214.3 298.7C209 304.4 204.7 303 204.7 303L202.8 297.3" stroke="#263238" stroke-width="2" stroke-linecap="round"/>
<path d="M217.6 324C217.6 324 222.4 323.5 224.3 316.8" stroke="#263238" stroke-width="2" stroke-linecap="round"/>
<path d="M199.5 292.5C199.5 292.5 200.9 288.2 209.5 288.2" stroke="#263238" stroke-width="2" stroke-linecap="round"/>
<path d="M271 271.8C270.3 288.4 257.8 306.7 247.4 304.8C256 299.5 250.2 283.9 243.9 281.6C239.6 280.1 237.3 286.7 236.2 291.1C234 292.3 231.4 293.2 228.3 292C221.1 289.3 224.7 286.3 222.5 286.3C220.3 286.3 213.1 282.6 213.1 282.6C210.9 278.3 212.3 267.4 212.3 267.4C210.2 266 205 267.1 198.5 272.1C191.9 277.2 191.9 284.8 191.9 284.8C191.9 284.8 179.8 288.4 176.1 281.9C172.5 275.4 178.3 275.4 178.3 270.3C178.3 265.3 169.6 245 187.7 233.4C205.8 221.8 224.7 232.7 224.7 232.7C224.7 232.7 235.2 232.7 243.5 234.1C254.2 235.9 271.7 255.1 271 271.8Z" fill="#263238"/>
<path d="M260.5 273.4C243.8 277.9 231.1 269.7 224.6 263.6C218.1 257.4 212.7 260.3 212.7 260.3" stroke="white" stroke-linecap="round" stroke-linejoin="round"/>
<path d="M211.9 255.4C211.9 255.4 215.6 249.7 221.7 249.7C227.9 249.7 242.1 258.3 253.6 258.3" stroke="white" stroke-linecap="round" stroke-linejoin="round"/>
<path d="M191.9 278.3C191.9 278.3 187.8 271.7 194.4 264.8C200.9 257.9 207.8 266.4 207.8 266.4" stroke="white" stroke-linecap="round" stroke-linejoin="round"/>
<path d="M180.1 272.1C180.1 272.1 186.2 267.2 187 258.3C187.8 249.3 200.1 241.5 207.8 248.9" stroke="white" stroke-linecap="round" stroke-linejoin="round"/>
<path d="M192.7 239.5C192.7 239.5 205 227.6 215.2 242.7" stroke="white" stroke-linecap="round" stroke-linejoin="round"/>
<path d="M292.5 821.6C292.5 821.6 300.1 833.3 299.2 840.9C298.4 848.4 298.4 848.4 298.4 848.4C298.4 848.4 270.7 856 264.9 856C259 856 228 853.1 228 853.1L226.7 847.7C226.5 846.9 226.9 846.1 227.7 845.7L255.3 832.8L264 823.3L292.5 821.6Z" fill="white" stroke="#263238" stroke-width="2"/>
<path d="M269.1 850.1C276.6 850.7 290.8 846.1 299 843.2C298.4 848.4 298.4 848.4 298.4 848.4C298.4 848.4 270.7 856 264.9 856C259 856 228 853.1 228 853.1L227.1 849.3C231.9 849.3 259.2 849.3 269.1 850.1V850.1Z" fill="#5390D8" stroke="#263238" stroke-width="2"/>
<path d="M290.5 837.9C298.7 847.1 293.5 860.7 293.5 860.7C293.5 860.7 218.5 862.4 215.1 860.7C211.6 859 215.1 850.4 215.1 850.4L255.3 832.8C255.3 832.8 282.3 828.8 290.5 837.9Z" fill="white" stroke="#263238" stroke-width="2"/>
<path d="M293.5 860.7C293.5 860.7 218.5 862.4 215.1 860.7C213.4 859.9 213.3 857.4 213.7 855.1H294.8C294.3 858.4 293.5 860.7 293.5 860.7V860.7Z" fill="#5390D8" stroke="#263238" stroke-width="2"/>
<path d="M240.2 521.2L296.3 522.4C296.3 522.4 287.8 535.3 286 543.7C284.3 552.1 258.2 680 258.2 686.7C258.2 693.4 269.1 732 274.1 755.4C279.1 778.9 292.5 821.6 292.5 821.6L263.2 827.5L259 817.4C259 817.4 217.1 705.2 216.3 698.5C215.5 691.8 217.8 633.3 221.8 604.2C225.8 575 236.3 528.4 236.3 528.4L240.2 521.2Z" fill="#5390D8" stroke="#263238" stroke-width="2"/>
<path d="M307.5 519.1C314.5 534.8 304.1 565.3 299.4 579.8C294.6 594.3 286.2 671.8 288.9 691.9C291.6 712 296.9 761.5 296.9 785.6C296.9 809.7 290.5 837.9 290.5 837.9C290.5 837.9 283.3 838.3 276.8 836.5C273 835.4 255.3 832.8 255.3 832.8L256.2 823.6C256.2 823.6 258.1 811 256.8 785.6C255.8 768 240.7 712 240.7 702.6C240.7 693.2 235.2 630.2 232.7 600.6C230.1 571 236.3 528.4 236.3 528.4C236.3 528.4 300.5 503.5 307.5 519.1Z" fill="#5390D8" stroke="#263238" stroke-width="2"/>
<path d="M315.2 511.3L314.6 530.3C314.6 530.3 303.2 532.6 287.8 535.3C275.2 537.5 243.3 534.7 232.6 533.6C230.6 533.5 229.1 531.7 229.2 529.7L230.3 512.5L315.2 511.3Z" fill="#263238"/>
<path d="M322 416C319.6 438.9 316.1 491.6 315.2 511.3C315.1 515.5 314.9 520.8 310.7 521.1C307.2 521.3 286 525.9 278.9 525.5C259.4 524.6 237.8 523.2 233.4 519.5C228.9 515.9 230.3 512.5 230.3 512.5L236.4 462.9C238.3 447.2 231.6 412.9 234 398.3C236.4 383.7 239.1 365.2 245.9 353.1C252.7 341 270.7 321.5 270.7 321.5C300.3 324.2 326.7 369.3 322 416V416Z" fill="white" stroke="#263238" stroke-width="2"/>
<g style="mix-blend-mode:multiply">
<path d="M275.2 440.7L234.9 429.4C234.1 420.1 233.3 410.9 233.5 403.9L274.6 418L322.4 409.9C322.333 411.967 322.2 414 322 416C321.3 422.8 320.5 432.2 319.7 442.6L275.2 440.7Z" fill="#5390D8"/>
</g>
<g style="mix-blend-mode:multiply">
<path d="M295.9 366L285.9 370L255.6 339.1C260.8 332.6 266.2 326.5 268.9 323.5L295.9 366Z" fill="#5390D8"/>
</g>
<path d="M277.2 322.8L241 364.6C242.4 360.4 244 356.5 245.9 353.1C252.7 341 270.7 321.5 270.7 321.5C272.9 321.7 275.1 322.2 277.2 322.8Z" fill="#263238"/>
<g style="mix-blend-mode:multiply">
<path d="M241.5 363.1L275.9 378.7L314.5 363.2C318.7 373.7 321.5 385.5 322.3 397.9L274.6 403.3L235.3 390.4C236.8 381.4 238.6 371.6 241.5 363.1Z" fill="#5390D8"/>
</g>
<g style="mix-blend-mode:multiply">
<path d="M316.4 489.3C315.9 498.2 315.5 506 315.2 511.3C315.2 512.4 314.9 513.5 314.5 514.4L305.7 515.5C284.3 518 262.6 516.3 241.8 510.5L230.9 507.5L233.9 483.4L243.4 486.7C262.6 493.2 283 494.9 302.9 491.6L316.4 489.3Z" fill="#5390D8"/>
</g>
<g style="mix-blend-mode:multiply">
<path d="M318.6 457.1C318 465.6 317.4 474.1 316.9 482.1L311 482.8C289.6 485.3 267.9 483.7 247.1 477.9L235 474.5L236.4 462.9C236.8 459.4 236.8 454.9 236.6 449.8L248.8 454C267.9 460.6 288.3 462.2 308.3 458.9L318.6 457.1Z" fill="#5390D8"/>
</g>
<path d="M122.3 372.2L161 403.3L159.3 405.4L120.6 374.3L122.3 372.2Z" fill="#263238"/>
<g style="mix-blend-mode:multiply" opacity="0.5">
<path d="M276.4 465.2L166.1 429.7L161 426.3L140.9 409.9L131 391L133.9 385.1L158.6 404.1L145.4 391.8L148 388.5L152.8 391.8L166.8 397.1L169.8 417.1L174.2 420.1L253.9 449.2C253.9 449.2 253.5 431.5 253.4 416.7L276.4 465.2Z" fill="#5390D8"/>
</g>
<path d="M289.3 343.1C289.3 343.1 303.5 352.7 303.8 375.6C303.9 385.5 302.9 394.9 300.6 411.3C298.3 427.7 284 481 272.9 487.5C261.8 494 244.5 481.7 244.5 481.7L161 426.3L140.9 409.9L131 391L133.9 385.1L158.6 404.1L145.4 391.8L148 388.5L152.8 391.8L166.8 397.1L169.8 417.1L174.2 420.1L253.9 449.2C253.9 449.2 252.9 406.2 253.7 398C254.4 389.7 255.4 369.1 264.2 354.1" fill="white"/>
<path d="M289.3 343.1C289.3 343.1 303.5 352.7 303.8 375.6C303.9 385.5 302.9 394.9 300.6 411.3C298.3 427.7 284 481 272.9 487.5C261.8 494 244.5 481.7 244.5 481.7L161 426.3L140.9 409.9L131 391L133.9 385.1L158.6 404.1L145.4 391.8L148 388.5L152.8 391.8L166.8 397.1L169.8 417.1L174.2 420.1L253.9 449.2C253.9 449.2 252.9 406.2 253.7 398C254.4 389.7 255.4 369.1 264.2 354.1" stroke="#263238" stroke-width="2"/>
<path d="M251.3 440.7C251.3 440.7 247.8 432.7 247.9 429.4C248.1 426.1 250.8 424.3 250.8 424.3C250.8 424.3 248.8 411.8 250.3 409.2C251.7 406.7 249.8 366.1 259 352.1C268.2 338.2 280.1 336.8 289.2 337.3C298.3 337.8 309.7 358.6 310.4 370.4C311.1 382.2 304.5 409.4 304.5 409.4C304.5 409.4 304.9 415.9 304.5 423.7C304.1 431.6 300 434.6 299.2 437.9C298.4 441.1 299.4 446.4 298.6 449.6C297.8 452.8 292.3 457.1 292.3 457.1L284.4 471.1L253.9 449.2L251.3 440.7Z" fill="white" stroke="#263238" stroke-width="2"/>
<g style="mix-blend-mode:multiply">
<path d="M305.9 403.3C305.1 406.9 304.5 409.4 304.5 409.4C304.5 409.4 304.9 415.9 304.5 423.7C304.4 425.4 304.1 426.7 303.8 428C291.6 429.9 272.6 430.7 250.8 423.9C250.4 421.8 249 411.5 250.3 409.2C250.7 408.5 250.8 404.5 251 398.8C262.3 401.3 283.3 405 305.9 403.3V403.3Z" fill="#5390D8"/>
</g>
<g style="mix-blend-mode:multiply">
<path d="M307.8 359.6C309.3 363.5 310.2 367.3 310.4 370.4C310.6 374 310.2 379.1 309.4 384.4C295.8 386.1 275.3 386.2 252.4 377.5C253.3 368.7 254.9 360.1 257.8 354.4C267.4 356.6 286.5 360.3 307.8 359.6Z" fill="#5390D8"/>
</g>
<path d="M298.8 447.9C298.8 448.5 298.733 449.067 298.6 449.6C297.8 452.8 292.3 457.1 292.3 457.1L284.4 471.1L253.9 449.2L251.4 440.9C263.2 444.2 280.4 447.8 298.8 447.9Z" fill="#263238"/>
<path d="M260.6 538.8C260.6 538.8 258.4 542 261.2 552.1C264.1 562.3 273.7 570.1 273.7 570.1C273.7 570.1 270.6 631.3 266.8 654.5C262.9 677.6 269.4 697.6 270.8 702.3C272.1 706.9 270.1 720.3 271.4 726.3C272.8 732.3 280.8 768.2 277.4 793.5C274.1 818.9 273.4 836.2 273.4 836.2" stroke="#263238" stroke-width="2"/>
<path d="M277.9 539.6L274.2 560.1" stroke="#263238" stroke-width="2"/>
</svg>
