<svg width="20" height="20" viewBox="0 0 20 20" fill="none" xmlns="http://www.w3.org/2000/svg">
  <defs>
    <linearGradient id="instagramGradient" x1="0%" y1="0%" x2="100%" y2="100%">
      <stop offset="0%" style="stop-color:#f09433;stop-opacity:1" />
      <stop offset="25%" style="stop-color:#e6683c;stop-opacity:1" />
      <stop offset="50%" style="stop-color:#dc2743;stop-opacity:1" />
      <stop offset="75%" style="stop-color:#cc2366;stop-opacity:1" />
      <stop offset="100%" style="stop-color:#bc1888;stop-opacity:1" />
    </linearGradient>
  </defs>
  <path d="M10 1.802c2.67 0 2.987.01 4.042.059 2.71.123 3.975 1.409 4.099 4.099.048 1.054.057 1.37.057 4.04 0 2.672-.01 2.988-.058 4.042-.124 2.687-1.386 3.975-4.099 4.099-1.054.048-1.37.058-4.041.058-2.67 0-2.987-.01-4.04-.058-2.717-.124-3.977-1.416-4.1-4.1-.048-1.054-.058-1.37-.058-4.041 0-2.67.01-2.986.058-4.04.124-2.69 1.387-3.977 4.1-4.1 1.054-.048 1.37-.058 4.04-.058zm0-1.802C7.318 0 6.965.013 5.877.06 2.246.227.227 2.242.061 5.877.013 6.965 0 7.318 0 10s.013 3.035.06 4.123c.167 3.632 2.182 5.65 5.817 5.817 1.088.047 1.441.06 4.123.06s3.035-.013 4.123-.06c3.629-.167 5.652-2.182 5.816-5.817.047-1.088.06-1.441.06-4.123s-.013-3.035-.06-4.123C19.777 2.249 17.76.228 14.124.06 13.036.013 12.683 0 10 0zm0 4.865a5.135 5.135 0 1 1 0 10.27 5.135 5.135 0 0 1 0-10.27zm0 8.468a3.333 3.333 0 1 0 0-6.666 3.333 3.333 0 0 0 0 6.666zm5.338-9.87a1.2 1.2 0 1 1-2.4 0 1.2 1.2 0 0 1 2.4 0z" fill="url(#instagramGradient)"/>
</svg> 