<svg width="20" height="20" viewBox="0 0 20 20" fill="none" xmlns="http://www.w3.org/2000/svg">
  <path d="M18.5 0H1.5C0.675 0 0 0.675 0 1.5V18.5C0 19.325 0.675 20 1.5 20H18.5C19.325 20 20 19.325 20 18.5V1.5C20 0.675 19.325 0 18.5 0ZM6 17H3V8H6V17ZM4.5 6.5C3.675 6.5 3 5.825 3 5C3 4.175 3.675 3.5 4.5 3.5C5.325 3.5 6 4.175 6 5C6 5.825 5.325 6.5 4.5 6.5ZM17 17H14V12.5C14 11.675 13.325 11 12.5 11C11.675 11 11 11.675 11 12.5V17H8V8H11V9.5C11.825 8.675 12.675 8 14 8C16.2 8 17 9.8 17 12.5V17Z" fill="#0077B5"/>
</svg> 